<svg width="16" height="8" viewBox="0 0 16 8" fill="none" xmlns="http://www.w3.org/2000/svg"><path fill-rule="evenodd" clip-rule="evenodd" d="M0 1.11v5.894c4.19-.366 8.917-1.76 12.558-4.585-3.702.624-8.362.635-12.56-1.31zM0 8l.02-.002H0z" fill="#fff"/><path fill-rule="evenodd" clip-rule="evenodd" d="M0 0c.075.04.15.076.227.113 4.698 2.268 10.127 1.89 13.98.955l1.792-.434L14.69 1.9c-4 3.878-9.73 5.676-14.648 6.096C.03 7.996.014 8 0 8v-.996c4.19-.365 8.918-1.76 12.56-4.585-3.703.625-8.364.636-12.56-1.31V0z" fill="#D5D5D5"/></svg>